<?xml version="1.0" encoding="UTF-8" standalone="no"?>
<!-- Generator: Adobe Illustrator 16.0.4, SVG Export Plug-In . SVG Version: 6.00 Build 0)  -->

<svg
   xmlns:dc="http://purl.org/dc/elements/1.1/"
   xmlns:cc="http://creativecommons.org/ns#"
   xmlns:rdf="http://www.w3.org/1999/02/22-rdf-syntax-ns#"
   xmlns:svg="http://www.w3.org/2000/svg"
   xmlns="http://www.w3.org/2000/svg"
   xmlns:xlink="http://www.w3.org/1999/xlink"
   xmlns:sodipodi="http://sodipodi.sourceforge.net/DTD/sodipodi-0.dtd"
   xmlns:inkscape="http://www.inkscape.org/namespaces/inkscape"
   version="1.1"
   id="Layer_1"
   x="0px"
   y="0px"
   width="170.12"
   height="84.209999"
   viewBox="0 0 170.11999 84.209999"
   enable-background="new 0 0 180.244 109"
   xml:space="preserve"
   inkscape:version="0.48.4 r9939"
   sodipodi:docname="Staples Logo.svg"><metadata
   id="metadata6273"><rdf:RDF><cc:Work
       rdf:about=""><dc:format>image/svg+xml</dc:format><dc:type
         rdf:resource="http://purl.org/dc/dcmitype/StillImage" /></cc:Work></rdf:RDF></metadata><defs
   id="defs6271" /><sodipodi:namedview
   pagecolor="#ffffff"
   bordercolor="#666666"
   borderopacity="1"
   objecttolerance="10"
   gridtolerance="10"
   guidetolerance="10"
   inkscape:pageopacity="0"
   inkscape:pageshadow="2"
   inkscape:window-width="1360"
   inkscape:window-height="706"
   id="namedview6269"
   showgrid="false"
   inkscape:zoom="1.4142136"
   inkscape:cx="-27.308577"
   inkscape:cy="173.86256"
   inkscape:window-x="-8"
   inkscape:window-y="-8"
   inkscape:window-maximized="1"
   inkscape:current-layer="Layer_1" />
<path
   d="M 163.005,0.00300397 -1.6479492e-6,17.032004 7.1089984,84.210004 170.113,67.181004 163.005,0.00300397 z M 0.88599835,17.749004 162.292,0.88600397 169.231,66.466004 7.8219984,83.328004 0.88599835,17.749004 z"
   id="path6045"
   inkscape:connector-curvature="0"
   style="fill:#ffffff" />
<polygon
   points="2.548,18.799 9.486,84.379 170.894,67.517 163.953,1.937 "
   id="polygon6047"
   transform="translate(-1.6650016,-1.050996)"
   style="fill:#e2231a" />














<g
   id="g6157"
   transform="translate(-1.6650016,-1.050996)">
	<defs
   id="defs6159">
		<rect
   id="SVGID_21_"
   x="-3.279"
   y="-38.650002"
   width="183.52299"
   height="183.522" />
	</defs>
	<clipPath
   id="SVGID_22_">
		<use
   xlink:href="#SVGID_21_"
   overflow="visible"
   id="use6163"
   style="overflow:visible"
   x="0"
   y="0"
   width="180.244"
   height="109" />
	</clipPath>
	<path
   clip-path="url(#SVGID_22_)"
   d="M 29.048,61.651 H 29.04 c -9.566,1.001 -11.253,-5.106 -11.538,-7.78 l -0.005,-0.052 5.054,-0.53 0.007,0.055 c 0.165,1.265 1.041,4.153 5.612,3.672 1.463,-0.154 2.604,-0.496 3.4,-1.021 1.022,-0.672 1.475,-1.641 1.343,-2.881 -0.208,-1.96 -1.939,-2.35 -4.766,-2.757 l -2.714,-0.385 c -4.157,-0.587 -8.08,-1.14 -8.697,-6.997 -0.121,-1.148 -0.127,-3.375 1.202,-5.39 1.416,-2.148 3.928,-3.429 7.464,-3.798 3.381,-0.357 6.07,0.408 8.002,2.27 1.999,1.924 2.471,4.354 2.583,5.31 l 0.005,0.055 -5.048,0.528 -0.011,-0.047 c -0.24,-1.06 -0.877,-3.881 -5.411,-3.404 -1.11,0.118 -2.096,0.466 -2.784,0.98 -0.859,0.642 -1.239,1.51 -1.125,2.578 0.217,2.063 1.868,2.296 2.853,2.436 l 6.178,0.956 c 3.468,0.529 6.749,1.683 7.253,6.472 0.363,3.415 -0.747,6.033 -3.295,7.781 -2.12,1.452 -4.591,1.846 -5.554,1.949"
   id="path6165"
   inkscape:connector-curvature="0"
   style="fill:#ffffff" />
</g>
<g
   id="g6167"
   transform="translate(-1.6650016,-1.050996)">
	<defs
   id="defs6169">
		<rect
   id="SVGID_23_"
   x="-3.279"
   y="-38.650002"
   width="183.52299"
   height="183.522" />
	</defs>
	<clipPath
   id="SVGID_24_">
		<use
   xlink:href="#SVGID_23_"
   overflow="visible"
   id="use6173"
   style="overflow:visible"
   x="0"
   y="0"
   width="180.244"
   height="109" />
	</clipPath>
	<polygon
   clip-path="url(#SVGID_24_)"
   points="48.819,36.875 51.114,58.631 45.852,59.183 45.847,59.128 43.556,37.428 36.103,38.208 35.599,33.423 55.769,31.309 56.273,36.096 "
   id="polygon6175"
   style="fill:#ffffff" />
</g>
<g
   id="g6177"
   transform="translate(-1.6650016,-1.050996)">
	<defs
   id="defs6179">
		<rect
   id="SVGID_25_"
   x="-3.279"
   y="-38.650002"
   width="183.52299"
   height="183.522" />
	</defs>
	<clipPath
   id="SVGID_26_">
		<use
   xlink:href="#SVGID_25_"
   overflow="visible"
   id="use6183"
   style="overflow:visible"
   x="0"
   y="0"
   width="180.244"
   height="109" />
	</clipPath>
	<polygon
   clip-path="url(#SVGID_26_)"
   points="116.737,51.751 116.731,51.696 113.939,25.215 113.996,25.207 132.183,23.304 132.687,28.087 119.603,29.456 120.178,34.904 132.199,33.645 132.703,38.432 120.68,39.692 121.392,46.429 135.06,44.996 135.57,49.78 135.515,49.787 "
   id="polygon6185"
   style="fill:#ffffff" />
</g>
<g
   id="g6187"
   transform="translate(-1.6650016,-1.050996)">
	<defs
   id="defs6189">
		<rect
   id="SVGID_27_"
   x="-3.279"
   y="-38.650002"
   width="183.52299"
   height="183.522" />
	</defs>
	<clipPath
   id="SVGID_28_">
		<use
   xlink:href="#SVGID_27_"
   overflow="visible"
   id="use6193"
   style="overflow:visible"
   x="0"
   y="0"
   width="180.244"
   height="109" />
	</clipPath>
	<path
   clip-path="url(#SVGID_28_)"
   d="m 147.764,49.209 0,0 h -0.002 c -3.979,0.416 -7.018,-0.356 -9.029,-2.298 -1.87,-1.804 -2.373,-4.208 -2.508,-5.479 l -0.004,-0.056 5.05,-0.532 0.011,0.054 c 0.161,1.264 1.039,4.153 5.607,3.676 1.463,-0.153 2.603,-0.498 3.403,-1.021 1.021,-0.672 1.47,-1.642 1.342,-2.882 -0.209,-1.958 -1.938,-2.35 -4.767,-2.758 l -2.71,-0.387 c -4.16,-0.584 -8.083,-1.14 -8.698,-6.997 -0.204,-1.921 -0.173,-8.259 8.664,-9.188 3.378,-0.354 6.068,0.409 8.001,2.27 1.997,1.927 2.472,4.355 2.582,5.311 l 0.008,0.055 -5.05,0.529 -0.011,-0.047 c -0.236,-1.06 -0.868,-3.881 -5.413,-3.402 -2.046,0.213 -4.146,1.262 -3.907,3.554 0.217,2.066 1.868,2.298 2.854,2.437 l 6.178,0.954 c 3.469,0.532 6.752,1.684 7.256,6.477 0.358,3.414 -0.751,6.032 -3.302,7.779 -2.122,1.455 -4.589,1.849 -5.555,1.951"
   id="path6195"
   inkscape:connector-curvature="0"
   style="fill:#ffffff" />
</g>
<g
   id="g6197"
   transform="translate(-1.6650016,-1.050996)">
	<defs
   id="defs6199">
		<rect
   id="SVGID_29_"
   x="-3.279"
   y="-38.650002"
   width="183.52299"
   height="183.522" />
	</defs>
	<clipPath
   id="SVGID_30_">
		<use
   xlink:href="#SVGID_29_"
   overflow="visible"
   id="use6203"
   style="overflow:visible"
   x="0"
   y="0"
   width="180.244"
   height="109" />
	</clipPath>
	<path
   clip-path="url(#SVGID_30_)"
   d="M 98.118,50.783 96.069,31.295 c -0.287,-2.701 1.754,-5.128 4.551,-5.423 2.799,-0.289 5.161,1.511 5.658,4.271 l 2.259,8.068 -4.437,1.567 -2.773,-9.067 -0.208,0.041 1.859,17.561 12.122,-1.274 0.513,4.89 -14.009,1.473 c -0.012,0 -0.271,0.027 -0.517,0.053 -1.493,0.155 -2.816,-1.236 -2.969,-2.672"
   id="path6205"
   inkscape:connector-curvature="0"
   style="fill:#ffffff" />
</g>
<g
   id="g6207"
   transform="translate(-1.6650016,-1.050996)">
	<defs
   id="defs6209">
		<rect
   id="SVGID_31_"
   x="-3.279"
   y="-38.650002"
   width="183.52299"
   height="183.522" />
	</defs>
	<clipPath
   id="SVGID_32_">
		<use
   xlink:href="#SVGID_31_"
   overflow="visible"
   id="use6213"
   style="overflow:visible"
   x="0"
   y="0"
   width="180.244"
   height="109" />
	</clipPath>
	<path
   clip-path="url(#SVGID_32_)"
   d="m 71.384,56.508 -0.016,-0.04 -2.138,-5.245 -9.023,0.946 -1.141,5.627 -5.545,0.58 0.019,-0.075 6.014,-27.388 6.023,-0.631 0.016,0.038 11.509,25.587 -5.718,0.601 z m -10.26,-9.161 6.138,-0.645 -4.107,-10.005 -2.031,10.65 z"
   id="path6215"
   inkscape:connector-curvature="0"
   style="fill:#ffffff" />
</g>
<g
   id="g6217"
   transform="translate(-1.6650016,-1.050996)">
	<defs
   id="defs6219">
		<rect
   id="SVGID_33_"
   x="-3.279"
   y="-38.650002"
   width="183.52299"
   height="183.522" />
	</defs>
	<clipPath
   id="SVGID_34_">
		<use
   xlink:href="#SVGID_33_"
   overflow="visible"
   id="use6223"
   style="overflow:visible"
   x="0"
   y="0"
   width="180.244"
   height="109" />
	</clipPath>
	<path
   clip-path="url(#SVGID_34_)"
   d="M 83.506,55.235 78.243,55.787 78.237,55.732 75.444,29.247 86.766,28.06 c 4.759,-0.499 8.059,2.455 8.611,7.712 0.144,1.369 -0.019,3.477 -0.91,5.293 -1.165,2.365 -3.222,3.72 -6.115,4.024 l -5.853,0.611 1.007,9.535 z m -1.499,-14.208 4.72,-0.493 c 3.791,-0.4 3.49,-3.248 3.365,-4.464 -0.271,-2.553 -1.679,-3.457 -4.86,-3.124 l -4.033,0.424 0.808,7.657 z"
   id="path6225"
   inkscape:connector-curvature="0"
   style="fill:#ffffff" />
</g>
<g
   id="g6227"
   transform="translate(-1.6650016,-1.050996)">
	<defs
   id="defs6229">
		<rect
   id="SVGID_35_"
   x="-3.279"
   y="-38.650002"
   width="183.52299"
   height="183.522" />
	</defs>
	<clipPath
   id="SVGID_36_">
		<use
   xlink:href="#SVGID_35_"
   overflow="visible"
   id="use6233"
   style="overflow:visible"
   x="0"
   y="0"
   width="180.244"
   height="109" />
	</clipPath>
	<path
   clip-path="url(#SVGID_36_)"
   d="m 154.312,20.576 c 0.941,-0.096 1.811,0.563 1.912,1.537 0.103,0.992 -0.606,1.818 -1.549,1.918 -0.946,0.098 -1.818,-0.562 -1.924,-1.554 -0.103,-0.973 0.614,-1.801 1.561,-1.901 m 0.336,3.2 c 0.798,-0.085 1.349,-0.787 1.259,-1.63 -0.088,-0.825 -0.771,-1.397 -1.57,-1.313 -0.808,0.086 -1.357,0.784 -1.27,1.611 0.085,0.843 0.773,1.418 1.581,1.332 m -0.933,-2.412 0.78,-0.081 c 0.479,-0.051 0.724,0.113 0.766,0.501 0.039,0.364 -0.177,0.542 -0.474,0.605 l 0.674,0.83 -0.341,0.035 -0.64,-0.808 -0.333,0.032 0.093,0.869 -0.314,0.032 -0.211,-2.015 z m 0.406,0.863 0.328,-0.034 c 0.274,-0.033 0.529,-0.07 0.495,-0.388 -0.029,-0.27 -0.262,-0.287 -0.478,-0.263 l -0.415,0.043 0.07,0.642 z"
   id="path6235"
   inkscape:connector-curvature="0"
   style="fill:#ffffff" />
</g>


<g
   id="g6257"
   transform="translate(-1.6650016,-1.050996)">
</g>
<g
   id="g6259"
   transform="translate(-1.6650016,-1.050996)">
</g>
<g
   id="g6261"
   transform="translate(-1.6650016,-1.050996)">
</g>
<g
   id="g6263"
   transform="translate(-1.6650016,-1.050996)">
</g>
<g
   id="g6265"
   transform="translate(-1.6650016,-1.050996)">
</g>
<g
   id="g6267"
   transform="translate(-1.6650016,-1.050996)">
</g>
</svg>